# xmcd
#
# Track frame offsets:
# 150
# 20012
# 41500
# 56290
# 92552
# 136405
# 153205
# 179252
# 210772
# 234525
# 257762
# 276640
# 298460
# 316635
#
# Disc length: 4549 seconds
#
#
# Revision: 0
# Processed by: cddbd v1.5.1PL0 Copyright (c) Steve Scherf et al.
# Submitted via: FreeRIP 2.942 
#
DISCID=c111c30e
DTITLE=Crossroad Blues Band - Smell The Tubes
DYEAR=1993
DGENRE=Blues
TTITLE0=Watch Out
TTITLE1=Story
TTITLE2=Talk To Your Daughter
TTITLE3=Breakman
TTITLE4=Black Cat blues
TTITLE5=Rolling and Tumbling
TTITLE6=Crossroad Train
TTITLE7=Love That burns
TTITLE8=Oneway Ticket
TTITLE9=Captain
TTITLE10=Silent Thunder In My Heart
TTITLE11=Crossroad
TTITLE12=Drunken Blues
TTITLE13=Going Down To Memphis
EXTD=
EXTT0=
EXTT1=
EXTT2=
EXTT3=
EXTT4=
EXTT5=
EXTT6=
EXTT7=
EXTT8=
EXTT9=
EXTT10=
EXTT11=
EXTT12=
EXTT13=
PLAYORDER=
